<svg xmlns="http://www.w3.org/2000/svg" width="159.148" height="207.086" viewBox="0 0 159.148 207.086">
  <g id="file_15558471" transform="translate(-30.048 0.003)">
    <g id="Grupo_1204323" data-name="Grupo 1204323" transform="translate(32.88 2.833)">
      <path id="Trazado_1278891" data-name="Trazado 1278891" d="M58.9,30.847H162.581v160.51H33.6V56.138Z" transform="translate(-33.599 -9.075)" fill="#d3dde6" fill-rule="evenodd"/>
      <path id="Trazado_1278892" data-name="Trazado 1278892" d="M126.165,65.069a37.878,37.878,0,1,0,9.986,52.624,37.878,37.878,0,0,0-9.986-52.624Z" transform="translate(-40.349 -14.668)" fill="#3d9ae2" fill-rule="evenodd"/>
      <path id="Trazado_1278893" data-name="Trazado 1278893" d="M77.931,72.543a38.384,38.384,0,0,0-4.391,5.343A37.785,37.785,0,0,0,69.263,112.2a9.213,9.213,0,0,0,2.728-2.225c2.063-2.522,1.17-5.767,4.586-7.475,6.9-3.463,2.809-4.563,6.386-8.886a4.521,4.521,0,0,1,5.743-.757c5.251,3.91,15.41-3.508,5.95-11.339-3.015-2.488-10.1-6.581-16.727-8.977Z" transform="translate(-40.348 -17.511)" fill="#91dc5a" fill-rule="evenodd"/>
      <path id="Trazado_1278894" data-name="Trazado 1278894" d="M133.957,90.807c.734,1.433,5.8,8.484,5.71,8.828,1.5,1.605-3.508,2.052-4.93,1.41-6.123-2.8-8.221,5.48-13.529,3.279-3.566-1.49-3.268-10.021-7.155-2.626-2.4,4.552,1.8,8.954-.458,14.309-1.594,3.761-5.412,17.84,1.387,16.338,3.05-.677,6.6-9.081,12.107-10.846,11.9-3.818,7.143-8.071,17.2-13,2.133-1.044,4.7-.814,6.776-1.02a38.023,38.023,0,0,0-5.446-27.23C139.827,82.54,131.056,85.028,133.957,90.807Z" transform="translate(-49.276 -19.07)" fill="#91dc5a" fill-rule="evenodd"/>
      <path id="Trazado_1278895" data-name="Trazado 1278895" d="M115.93,72.841c-7.131,4.253-7.384-1.869-13.861-4.437-3.141-1.238-7.98-3.027-10.5-5.228a37.87,37.87,0,0,1,39.577,1.892c.4.264.791.55,1.181.837C127.956,71.282,120.481,70.124,115.93,72.841Z" transform="translate(-45.328 -14.668)" fill="#91dc5a" fill-rule="evenodd"/>
      <path id="Trazado_1278896" data-name="Trazado 1278896" d="M75.238,130.572c3.027-3.268,7.5-3.268,10.525-7.9,1.135-1.72,7.7-1.213,7.223,6.535-.126,2.178,2.775,5.743,3.726,8.507.688,1.972.7,5.743-.6,7.911a37.984,37.984,0,0,1-20.878-15.054Z" transform="translate(-42.024 -27.49)" fill="#91dc5a" fill-rule="evenodd"/>
      <path id="Trazado_1278897" data-name="Trazado 1278897" d="M58.9,30.847V56.138H33.6Z" transform="translate(-33.599 -9.075)" fill="#bec7cf" fill-rule="evenodd"/>
      <path id="Trazado_1278898" data-name="Trazado 1278898" d="M182.156,61.737a29.092,29.092,0,1,0-29.087-29.089A29.094,29.094,0,0,0,182.156,61.737Z" transform="translate(-57.772 -3.552)" fill="#fb4455" fill-rule="evenodd"/>
      <path id="Trazado_1278899" data-name="Trazado 1278899" d="M167.3,33.692q17.61-.068,17.541,17.541Q167.23,51.3,167.3,33.692Z" transform="translate(-60.651 -9.65)" fill="#91dc5a" fill-rule="evenodd"/>
      <path id="Trazado_1278900" data-name="Trazado 1278900" d="M209.4,25.8q-20.172-.068-20.109,20.11,20.19.068,20.109-20.11Z" transform="translate(-65.1 -8.054)" fill="#91dc5a" fill-rule="evenodd"/>
      <path id="Trazado_1278901" data-name="Trazado 1278901" d="M142.318,229.634l.722-19.479L189.326,130a9.107,9.107,0,1,1,15.775,9.1l-46.274,80.163Z" transform="translate(-55.597 -28.215)" fill="#fdbf00" fill-rule="evenodd"/>
      <path id="Trazado_1278902" data-name="Trazado 1278902" d="M195.657,137.729,200.118,130a9.107,9.107,0,1,1,15.775,9.1l-4.461,7.738Z" transform="translate(-66.389 -28.215)" fill="#fb4455" fill-rule="evenodd"/>
      <path id="Trazado_1278903" data-name="Trazado 1278903" d="M142.318,251.119l.722-19.479,15.787,9.115Z" transform="translate(-55.597 -49.702)" fill="#517c90" fill-rule="evenodd"/>
    </g>
    <path id="Trazado_1278904" data-name="Trazado 1278904" d="M33.6,62.554h7.567V197.772H33.6Z" transform="translate(-0.719 -12.657)" fill="#bec7cf"/>
    <path id="Trazado_1278905" data-name="Trazado 1278905" d="M74.995,100.847A37.676,37.676,0,0,1,81.3,75.039c.711-1.032,1.456-2.029,2.247-2.981a37.523,37.523,0,0,1,6.936-6.443,37.952,37.952,0,0,1,18.275-6.936,37.885,37.885,0,1,0-.069,75.371,37.736,37.736,0,0,1-13.345-3.955,36.82,36.82,0,0,1-4.059-2.419,37.579,37.579,0,0,1-12.141-13.54,37.967,37.967,0,0,1-4.151-13.288Z" transform="translate(-7.467 -11.832)" fill="#378bcb" fill-rule="evenodd"/>
    <path id="Trazado_1278906" data-name="Trazado 1278906" d="M75.238,131.865c1.594-1.731,3.6-2.545,5.582-3.611a37.579,37.579,0,0,0,12.141,13.54,36.814,36.814,0,0,0,4.059,2.419,7.625,7.625,0,0,1-.906,2.706,37.984,37.984,0,0,1-20.878-15.054Z" transform="translate(-9.143 -25.951)" fill="#83c651" fill-rule="evenodd"/>
    <path id="Trazado_1278907" data-name="Trazado 1278907" d="M77.931,72.543a38.384,38.384,0,0,0-4.391,5.343A37.785,37.785,0,0,0,69.263,112.2a9.213,9.213,0,0,0,2.728-2.225c1.651-2.03,1.41-4.506,3-6.283A37.676,37.676,0,0,1,81.3,77.885c.711-1.032,1.456-2.029,2.247-2.981-1.835-.871-3.749-1.685-5.618-2.362Z" transform="translate(-7.468 -14.679)" fill="#83c651" fill-rule="evenodd"/>
    <path id="Trazado_1278908" data-name="Trazado 1278908" d="M95.464,65.617a18.668,18.668,0,0,1-3.9-2.442,38.072,38.072,0,0,1,22.173-4.494,37.952,37.952,0,0,0-18.275,6.936Z" transform="translate(-12.447 -11.834)" fill="#83c651" fill-rule="evenodd"/>
    <path id="Trazado_1278909" data-name="Trazado 1278909" d="M158.549,32.65a29.621,29.621,0,0,1,.93-7.326A29.134,29.134,0,0,1,184.909,3.678c-.906-.081-1.823-.126-2.75-.126a29.091,29.091,0,0,0-3.027,58.024v-1.1a29.112,29.112,0,0,1-20.58-27.827Z" transform="translate(-24.891 -0.719)" fill="#e23d4d" fill-rule="evenodd"/>
    <path id="Trazado_1278910" data-name="Trazado 1278910" d="M142.318,251.119l7.246-4.551.413-10.927-6.352-3.657-.585-.344-.011.344Z" transform="translate(-22.716 -46.869)" fill="#497082" fill-rule="evenodd"/>
    <path id="Trazado_1278911" data-name="Trazado 1278911" d="M143.808,213.613l6.352,3.657,2.11-3.657,8.152-14.114,3.268-5.664,4.9-8.473,2.407-4.162,13.77-23.87,7.211-12.485-6.925-4-.286.482-14.4,24.948-2.855,4.953-4.9,8.473-3.267,5.664-4.9,8.473L151.18,199.5l-7.957,13.77Z" transform="translate(-22.899 -28.498)" fill="#e4ac00" fill-rule="evenodd"/>
    <path id="Trazado_1278912" data-name="Trazado 1278912" d="M195.657,137.73l6.925,4L207.053,134a9.1,9.1,0,0,1,8.507-4.53,8.915,8.915,0,0,0-2.993-2.809A9.134,9.134,0,0,0,200.116,130Z" transform="translate(-33.508 -25.383)" fill="#e23d4d" fill-rule="evenodd"/>
    <path id="Trazado_1278913" data-name="Trazado 1278913" d="M74.453,118.183A40.567,40.567,0,0,0,86,123.62a2.812,2.812,0,0,0,.416.118,40.673,40.673,0,1,0-11.962-5.555Zm10.685-.811a35.091,35.091,0,0,1-15.162-10.957c.574-.346,1.2-.668,1.861-1.011a17.176,17.176,0,0,0,6.835-5.379,2.144,2.144,0,0,1,1.2.425c.853.66,1.259,2.054,1.145,3.935-.121,2.134,1.066,4.253,2.325,6.5a22.058,22.058,0,0,1,1.556,3.114,8.6,8.6,0,0,1,.244,3.38ZM128.01,67.494A35.269,35.269,0,0,1,132.2,88.531a13.772,13.772,0,0,0-5.559,1.184,19.886,19.886,0,0,0-8.581,7.273c-1.5,2.117-2.685,3.789-8.235,5.574-3.9,1.25-6.734,4.784-9.016,7.622a18.253,18.253,0,0,1-2.9,3.169c-.056.011-.1.018-.144.022-.855-1.7.425-8.7,2.043-12.517,1.47-3.478.846-6.606.344-9.119-.43-2.154-.655-3.486-.1-4.735a7.775,7.775,0,0,0,3.675,3.681c4.025,1.677,7.007-.539,8.981-2.005,2.108-1.566,2.921-2.013,4.455-1.314,1.682.773,6.8,1.027,8.587-1.461a3.389,3.389,0,0,0,.022-3.91,15.018,15.018,0,0,0-.983-1.642c-.55-.845-1.294-1.941-2.017-3.005-.965-1.42-2.423-3.567-2.676-4.066-.386-.768-.262-1.084-.21-1.219.661-1.693,5.062-3.4,8.13-4.566ZM90.843,50.1a35.443,35.443,0,0,1,6.607-.624,34.709,34.709,0,0,1,17.7,4.855,22.562,22.562,0,0,1-6.058,1.894,22.98,22.98,0,0,0-7.063,2.342c-.963.576-2.277,1.223-3.07,1.032a7.219,7.219,0,0,1-2.305-1.67,19.125,19.125,0,0,0-5.986-3.988l-.887-.351c-1.335-.526-3-1.185-4.588-1.916A35.471,35.471,0,0,1,90.844,50.1ZM78.935,54.716A50.646,50.646,0,0,0,87.7,58.854l.873.345a14,14,0,0,1,4.29,2.936C94.5,63.6,96.386,65.3,99.231,65.3a11.218,11.218,0,0,0,5.7-1.875,18.806,18.806,0,0,1,5.35-1.668c3.069-.661,6.748-1.453,9.8-3.923a34.936,34.936,0,0,1,4.7,4.832c-4.306,1.665-8.752,3.674-10.18,7.343a6.978,6.978,0,0,0,.433,5.83c.4.788,1.418,2.3,3.045,4.692.308.454.669.985,1.022,1.509-4.5-1.827-7.661.526-9.776,2.1-2.017,1.5-2.529,1.7-3.429,1.323a6.991,6.991,0,0,1-1.381-2.125c-.787-1.551-1.867-3.674-4.283-3.691h-.027c-2.369,0-3.83,2.157-5.056,4.487-1.664,3.161-1.075,6.114-.555,8.721.421,2.109.785,3.931-.006,5.8-.056.131-5.3,13.433-1.09,18.5a5.23,5.23,0,0,0,4.134,1.9,7.276,7.276,0,0,0,1.564-.178c2.311-.512,4.033-2.656,6.026-5.137,1.9-2.366,4.056-5.047,6.334-5.778,7.348-2.364,9.354-5.195,11.123-7.692a14.289,14.289,0,0,1,6.462-5.467,5.941,5.941,0,0,1,1.894-.5,35.067,35.067,0,0,1-40.406,24.621,14.237,14.237,0,0,0-.39-6.787,25.669,25.669,0,0,0-1.968-4.026,15.292,15.292,0,0,1-1.609-3.389c.445-7.372-4.194-9.5-5.627-9.972-2.7-.9-5.553-.175-6.792,1.714-1.321,2.017-3.025,2.891-5,3.9-.781.4-1.611.83-2.439,1.347a34.518,34.518,0,0,1-1.564-3.155,11.527,11.527,0,0,0,1.464-1.48,11.668,11.668,0,0,0,2.029-4.16c.485-1.541.7-2.1,1.635-2.565,4.581-2.3,5.649-4.144,6.1-6.95a4.563,4.563,0,0,1,1.19-2.66,1.812,1.812,0,0,1,1.88-.3c3.768,2.8,9.529,1.895,12.579-1.99,2.458-3.13,3.114-8.62-3.135-13.792A65.476,65.476,0,0,0,75.738,56.95a34.561,34.561,0,0,1,3.2-2.233ZM68.412,64.8a35.572,35.572,0,0,1,2.827-3.611,62.833,62.833,0,0,1,14.145,7.833c1.266,1.048,4.022,3.721,2.289,5.929-1.025,1.307-3.32,2-4.745.944a7.333,7.333,0,0,0-9.617,1.227,10.087,10.087,0,0,0-2.42,5.379c-.148.913-.222,1.372-3.048,2.791-3.128,1.564-3.923,4.087-4.5,5.929-.076.243-.149.472-.222.688-.061-.283-.128-.562-.182-.846A34.8,34.8,0,0,1,68.412,64.8ZM57.737,168.159a2.831,2.831,0,0,1-2.831,2.831H49.162a2.831,2.831,0,1,1,0-5.662h5.743a2.831,2.831,0,0,1,2.831,2.831Zm0-28.272a2.831,2.831,0,0,1-2.831,2.831H49.162a2.831,2.831,0,1,1,0-5.662h5.743a2.831,2.831,0,0,1,2.831,2.83Zm0,14.136a2.831,2.831,0,0,1-2.831,2.831H49.162a2.831,2.831,0,1,1,0-5.662h5.743a2.831,2.831,0,0,1,2.831,2.83ZM180.463,98.818a11.966,11.966,0,0,0-15.769,3.534V62.967a31.921,31.921,0,1,0-37.681-41.208H58.183a2.835,2.835,0,0,0-2,.83l-25.3,25.3a2.834,2.834,0,0,0-.83,2V185.1a2.831,2.831,0,0,0,2.831,2.831h84.492l-.6,16.21a2.831,2.831,0,0,0,4.336,2.5l16.512-10.365a2.828,2.828,0,0,0,.947-.983l4.252-7.366h19.046a2.831,2.831,0,0,0,2.831-2.831v-35.07l15.679-27.162,0-.007.006-.01,4.454-7.715a11.96,11.96,0,0,0-4.373-16.321Zm-23.2-93.156A26.26,26.26,0,0,1,159.9,58.051V43.429c13.218-.918,20.158-8.777,20.11-22.859a2.831,2.831,0,0,0-2.822-2.822h-.148c-11.047,0-18.244,4.339-21.229,12.657-3.381-4.2-8.817-6.374-16.178-6.374h-.114a2.831,2.831,0,0,0-2.824,2.821c-.049,12.4,6,19.364,17.542,20.288V58.005a26.258,26.258,0,0,1,3.026-52.343Zm2.753,32.081c.764-8.871,5.339-13.454,14.215-14.216C173.469,32.394,168.884,36.978,160.017,37.742Zm-5.918,3.7c-7.2-.731-10.887-4.415-11.608-11.618,7.206.726,10.874,4.409,11.609,11.618ZM55.351,31.43V47.064H39.717Zm-19.64,21.3H58.183A2.831,2.831,0,0,0,61.015,49.9V27.424h64.654a31.894,31.894,0,0,0,31.2,36.415c.066,0,.13.01.2.01.022,0,.043,0,.065,0,.044,0,.086,0,.129,0,.593,0,1.181-.019,1.766-.051V112.07l-14.423,24.984H62.781a2.831,2.831,0,1,0,0,5.662h78.554l-4.894,8.472H62.781a2.831,2.831,0,1,0,0,5.662h70.392l-4.892,8.476h-65.5a2.831,2.831,0,1,0,0,5.662h62.23L118.5,182.271H35.712ZM122.63,199.006l.35-9.435,7.648,4.414Zm36.4-16.734H146.085l12.945-22.426Zm.469-34.567a2.848,2.848,0,0,0-.159.275l-20.5,35.508a2.805,2.805,0,0,0-.229.4l-3.537,6.129-10.883-6.281,8.132-14.085c.037-.059.072-.119.1-.182l8.036-13.918c.047-.074.092-.151.133-.23l22.579-39.107,10.876,6.276Zm20.433-35.4-3.045,5.275-10.877-6.274,3.048-5.279a6.278,6.278,0,0,1,10.873,6.28Z"/>
  </g>
</svg>
