<svg id="Grupo_1204364" data-name="Grupo 1204364" xmlns="http://www.w3.org/2000/svg" width="82.001" height="82" viewBox="0 0 82.001 82">
  <g id="Grupo_1187152" data-name="Grupo 1187152" transform="translate(0)">
    <g id="Grupo_1185946" data-name="Grupo 1185946" transform="translate(0)">
      <g id="Grupo_1184280" data-name="Grupo 1184280" transform="translate(0)">
        <g id="Grupo_1182168" data-name="Grupo 1182168" transform="translate(0)">
          <g id="Grupo_1178877" data-name="Grupo 1178877" transform="translate(0)">
            <g id="Grupo_1111311" data-name="Grupo 1111311" transform="translate(0)">
              <g id="Grupo_1098742" data-name="Grupo 1098742" transform="translate(0)">
                <g id="Rect치ngulo_400898" data-name="Rect치ngulo 400898" transform="translate(0)" fill="#fff" stroke="#846e4e" stroke-width="1" opacity="0.859">
                  <rect width="82.001" height="82.001" rx="41" stroke="none"/>
                  <rect x="0.5" y="0.5" width="81.001" height="81.001" rx="40.5" fill="none"/>
                </g>
                <g id="Rect치ngulo_400907" data-name="Rect치ngulo 400907" transform="translate(0)" fill="none" stroke="#846e4e" stroke-width="1">
                  <rect width="82.001" height="82.001" rx="41" stroke="none"/>
                  <rect x="0.5" y="0.5" width="81.001" height="81.001" rx="40.5" fill="none"/>
                </g>
              </g>
            </g>
          </g>
        </g>
      </g>
    </g>
  </g>
  <g id="Filled_outline" data-name="Filled outline" transform="translate(11.911 11.971)">
    <path id="Trazado_1278966" data-name="Trazado 1278966" d="M14.712,16.109,40.84,8h8.109l6.307,23.425a3.361,3.361,0,0,1,0,1.8,4.054,4.054,0,0,1-3.6,2.7,4.628,4.628,0,0,1-4.5-3.6c-.18-.8.18-1.081,0-1.8-.256-1-1.188-1.286-3.6-2.7a12.439,12.439,0,0,1-2.7-1.8c-.631-.758-1.209-2.072-.9-4.5L26.425,35.029a12.9,12.9,0,0,1,0,3.6c-.991,6.989-7.558,10.893-9.01,11.712v5.406H7.5v-.9a4.5,4.5,0,0,0-4.5-4.5V22.415H8.406A6.307,6.307,0,0,0,14.712,16.109Z" transform="translate(-0.099 -0.594)" fill="#995f5b"/>
    <path id="Trazado_1278967" data-name="Trazado 1278967" d="M51.994,32.705c.18.721-.18,1,0,1.8a4.628,4.628,0,0,0,4.5,3.6,4.054,4.054,0,0,0,3.6-2.7,3.361,3.361,0,0,0,0-1.8l-.964-3.58Z" transform="translate(-4.946 -2.776)" fill="#ceac9a"/>
    <path id="Trazado_1278968" data-name="Trazado 1278968" d="M12.01,11a2.7,2.7,0,0,0-2.7,2.7,3.6,3.6,0,0,1-3.6,3.6H3v5.406H8.406a6.307,6.307,0,0,0,6.307-6.307V13.7a2.7,2.7,0,0,0-2.7-2.7Z" transform="translate(-0.099 -0.891)" fill="#d3843d"/>
    <path id="Trazado_1278969" data-name="Trazado 1278969" d="M60.307,7.5V3L54,7.5l1.532,5.676L58.5,11.109A5.082,5.082,0,0,0,60.307,7.5Z" transform="translate(-5.15 -0.099)" fill="#66342e"/>
    <path id="Trazado_1278970" data-name="Trazado 1278970" d="M3,24h7.208v7.208A7.208,7.208,0,0,1,3,38.415H3Z" transform="translate(-0.099 -2.179)" fill="#f9bb4b"/>
    <path id="Trazado_1278971" data-name="Trazado 1278971" d="M11,30.307l15.823,11.66a12.4,12.4,0,0,0,.394-1.75,12.9,12.9,0,0,0,0-3.6L11,24Z" transform="translate(-0.891 -2.179)" fill="#d3843d"/>
    <path id="Trazado_1278972" data-name="Trazado 1278972" d="M42.128,8c0,3.766-1.833,6.918-5.406,8.109L17.8,22.415,16,16.109Z" transform="translate(-1.387 -0.594)" fill="#66342e"/>
    <path id="Trazado_1278973" data-name="Trazado 1278973" d="M51.413,13.461l2.49-1.737A5.908,5.908,0,0,0,56.05,7.518a.768.768,0,0,0,.007-.112V2.9a.9.9,0,0,0-1.424-.732L48.561,6.5h-7.82a.92.92,0,0,0-.27.041L15.514,14.292v-1.48a3.6,3.6,0,1,0-7.208,0,2.7,2.7,0,0,1-2.7,2.7H2.9a.9.9,0,0,0-.9.9V49.751a.9.9,0,0,0,.9.9,3.6,3.6,0,0,1,3.6,3.6v.9a.9.9,0,0,0,.9.9h9.911a.9.9,0,0,0,.9-.9V50.269c2.715-1.622,8.073-5.6,9-12.1a13.785,13.785,0,0,0,.056-3.406l.153-.153a11.989,11.989,0,0,0,9.55,9.723,11.391,11.391,0,0,0,2.035.18,12.187,12.187,0,0,0,11.421-8.364,4.576,4.576,0,0,0,1.171.085,4.968,4.968,0,0,0,4.415-3.349,4.227,4.227,0,0,0,.005-2.289Zm1.7,13.233-5.2,1.951-.8-6.383,4.075-2.716ZM54.255,4.652v2.7a4.124,4.124,0,0,1-1.416,2.922l-1.924,1.342L49.882,7.775ZM41.606,8.307h6.553l2.532,9.4L46.3,20.637l-6.475-7.285a9.592,9.592,0,0,0,1.782-5.045Zm4.557,22.332a3.207,3.207,0,0,0-.057.9c-.692,1.061-3.262,4.558-7.2,4.7-3.378.1-6.153-2.252-7.492-3.39a15.068,15.068,0,0,1-1.137-1.09l8.629-8.629A5.346,5.346,0,0,0,40.046,26a12.2,12.2,0,0,0,2.942,2c.528.31.986.567,1.382.788,1.378.772,1.712.991,1.8,1.361A.991.991,0,0,1,46.163,30.639ZM36.236,9.748l3.526-1.095a6.921,6.921,0,0,1-3.526,5.484ZM38.6,14.686l6.69,7.526.678,5.417c-.222-.129-.45-.261-.714-.407-.387-.217-.834-.467-1.351-.769a14.485,14.485,0,0,1-2.465-1.6,4.922,4.922,0,0,1-.7-3.816.9.9,0,0,0-1.532-.75L29.159,30.327l-6.577-9.612L35.62,16.369A8.692,8.692,0,0,0,38.6,14.685Zm-5.965-3.82,1.8-.559v4.56l-1.8.6Zm-3.6,1.118,1.8-.559v4.642l-1.8.6Zm-3.6,1.119,1.8-.559v4.725l-1.8.6Zm-3.6,1.118,1.8-.559v4.807l-1.8.6Zm-1.8.559v2.188l-1.235-1.8Zm-3.035.942,2.765,4.038-2.724.908-1.3-4.555ZM3.8,17.316H5.6a4.51,4.51,0,0,0,4.5-4.5,1.8,1.8,0,1,1,3.6,0v2.7A5.411,5.411,0,0,1,8.307,20.92H3.8Zm0,5.406H9.208v6.307A6.317,6.317,0,0,1,3.8,35.272ZM18.3,48.079A10.307,10.307,0,0,0,15.239,41a10,10,0,0,0-2.973-1.982l-.721,1.651a8.2,8.2,0,0,1,2.433,1.622,8.548,8.548,0,0,1,2.438,4.888c.125.812,0,7.082,0,7.082H8.307a5.415,5.415,0,0,0-4.5-5.331V37.084a8.121,8.121,0,0,0,7.163-7.208L24.89,40.138A16.682,16.682,0,0,1,18.3,48.079Zm7.132-10.167c-.017.117-.046.227-.066.341L11.01,27.677V23.663L25.47,34.909a12.024,12.024,0,0,1-.036,3Zm.817-4.676L11.662,21.889a7.258,7.258,0,0,0,2.99-2.96l.9,3.139a.9.9,0,0,0,.862.654.886.886,0,0,0,.285-.047l4.1-1.368,7.058,10.316ZM37.3,42.558a10.216,10.216,0,0,1-8.24-9.467c.381.4.774.778,1.188,1.13,1.359,1.156,4.493,3.824,8.413,3.824.1,0,.207,0,.312-.006,3.818-.139,6.522-2.774,7.881-4.475a5.975,5.975,0,0,0,1.907,1.92A10.283,10.283,0,0,1,37.3,42.558ZM54.291,32.377A3.175,3.175,0,0,1,51.5,34.435a3.756,3.756,0,0,1-3.57-2.9,1.27,1.27,0,0,1,.011-.582c.021-.117.041-.258.053-.411l5.586-2.1.705,2.618a2.438,2.438,0,0,1,.01,1.321Z"/>
    <path id="Trazado_1278974" data-name="Trazado 1278974" d="M51,13h1.8v1.8H51Z" transform="translate(-4.853 -1.089)"/>
    <path id="Trazado_1278975" data-name="Trazado 1278975" d="M9,52h1.8v1.8H9Z" transform="translate(-0.693 -4.952)"/>
    <path id="Trazado_1278976" data-name="Trazado 1278976" d="M6,48H7.8v1.8H6Z" transform="translate(-0.396 -4.556)"/>
  </g>
</svg>
