<svg id="Grupo_1204365" data-name="Grupo 1204365" xmlns="http://www.w3.org/2000/svg" width="82.001" height="82" viewBox="0 0 82.001 82">
  <g id="Grupo_1187152" data-name="Grupo 1187152" transform="translate(0)">
    <g id="Grupo_1185946" data-name="Grupo 1185946" transform="translate(0)">
      <g id="Grupo_1184280" data-name="Grupo 1184280" transform="translate(0)">
        <g id="Grupo_1182168" data-name="Grupo 1182168" transform="translate(0)">
          <g id="Grupo_1178877" data-name="Grupo 1178877" transform="translate(0)">
            <g id="Grupo_1111311" data-name="Grupo 1111311" transform="translate(0)">
              <g id="Grupo_1098742" data-name="Grupo 1098742" transform="translate(0)">
                <g id="Rect치ngulo_400898" data-name="Rect치ngulo 400898" transform="translate(0)" fill="#fff" stroke="#846e4e" stroke-width="1" opacity="0.859">
                  <rect width="82.001" height="82.001" rx="41" stroke="none"/>
                  <rect x="0.5" y="0.5" width="81.001" height="81.001" rx="40.5" fill="none"/>
                </g>
                <g id="Rect치ngulo_400907" data-name="Rect치ngulo 400907" transform="translate(0)" fill="none" stroke="#846e4e" stroke-width="1">
                  <rect width="82.001" height="82.001" rx="41" stroke="none"/>
                  <rect x="0.5" y="0.5" width="81.001" height="81.001" rx="40.5" fill="none"/>
                </g>
              </g>
            </g>
          </g>
        </g>
      </g>
    </g>
  </g>
  <g id="windshield_4230865" transform="translate(-18.502 13.652)">
    <path id="Trazado_1278977" data-name="Trazado 1278977" d="M52.41,95.021h9.615V90H74.844v5.021h9.615a6.41,6.41,0,0,1,6.41,6.41V127.6a6.41,6.41,0,0,1-6.41,6.41H52.41A6.41,6.41,0,0,1,46,127.6V101.431A6.41,6.41,0,0,1,52.41,95.021Z" transform="translate(-8.932 -80.385)" fill="#fff"/>
    <path id="Trazado_1278978" data-name="Trazado 1278978" d="M90.868,351.522s-4.308-3.424-12.926,0A35.442,35.442,0,0,1,67.686,353.2a33.364,33.364,0,0,1-8.76-1.681c-8.618-3.424-12.926,0-12.926,0v8.307a6.41,6.41,0,0,0,6.41,6.41H84.458a6.41,6.41,0,0,0,6.41-6.41Z" transform="translate(-8.932 -312.61)" fill="#a0c8ff"/>
    <path id="Trazado_1278979" data-name="Trazado 1278979" d="M177.366,14.273H156V12.137A2.137,2.137,0,0,1,158.137,10h17.093a2.137,2.137,0,0,1,2.137,2.137Z" transform="translate(-107.18 -8.932)" fill="#dfedff"/>
    <path id="Trazado_1278980" data-name="Trazado 1278980" d="M156,50h21.366v4.273H156Z" transform="translate(-107.18 -44.659)" fill="#fff"/>
    <path id="Trazado_1278981" data-name="Trazado 1278981" d="M155.348,281.094,150.22,291.83a13.9,13.9,0,0,0-17.093,0L128,281.094s6.122-4.594,13.674-4.594S155.348,281.094,155.348,281.094Z" transform="translate(-82.172 -246.962)" fill="#dfedff"/>
    <g id="Grupo_1204366" data-name="Grupo 1204366" transform="translate(36)">
      <path id="Trazado_1278982" data-name="Trazado 1278982" d="M82.417,18.134a7.471,7.471,0,0,0-6.89-4.567H66.98V10.683h3.2a1.068,1.068,0,0,0,1.068-1.068V8.6h1.068a3.2,3.2,0,1,0,0-6.41H71.088A3.21,3.21,0,0,0,68.049,0H50.956a3.209,3.209,0,0,0-3.2,3.2v6.41a1.068,1.068,0,0,0,1.068,1.068h3.2v2.884H43.478A7.471,7.471,0,0,0,36,21.045V47.218A7.471,7.471,0,0,0,43.478,54.7H75.527A7.471,7.471,0,0,0,83,47.218V30.843a1.068,1.068,0,1,0-2.137,0v6.306a14.1,14.1,0,0,0-7.685-.553l.957-2a1.068,1.068,0,0,0-.323-1.315A26.642,26.642,0,0,0,60.571,28.5V27.159a13.2,13.2,0,0,1,1.007-.863,1.068,1.068,0,0,0-1.3-1.693c-.258.2-.516.414-.772.64-.256-.226-.514-.441-.772-.64a1.068,1.068,0,0,0-1.3,1.693,13.2,13.2,0,0,1,1.007.863V28.5a26.64,26.64,0,0,0-13.247,4.779,1.068,1.068,0,0,0-.323,1.315l.957,2a14.089,14.089,0,0,0-7.684.554v-16.1A5.342,5.342,0,0,1,43.478,15.7h9.615a1.069,1.069,0,0,0,1.068-1.068V10.683H64.844v3.953A1.069,1.069,0,0,0,65.912,15.7h9.615a5.341,5.341,0,0,1,5.341,5.341v.183a1.068,1.068,0,1,0,2.137,0v-.183a7.433,7.433,0,0,0-.588-2.911ZM71.254,4.327h1.068a1.068,1.068,0,1,1,0,2.137H71.254ZM59.5,30.607A24.2,24.2,0,0,1,71.817,34.5l-4.2,8.8a16.737,16.737,0,0,0-7.044-2.39V39.9a1.068,1.068,0,0,0-2.137,0v1.007A16.737,16.737,0,0,0,51.39,43.3l-4.2-8.8A24.115,24.115,0,0,1,59.5,30.607ZM40.654,38.648a14.561,14.561,0,0,1,6.335.393l3,6.288a1.068,1.068,0,0,0,1.615.387A14.61,14.61,0,0,1,59.5,43a14.718,14.718,0,0,1,7.9,2.717,1.068,1.068,0,0,0,1.615-.387l3-6.288a14.561,14.561,0,0,1,6.335-.393,8.478,8.478,0,0,1,2.518.853v7.718a5.34,5.34,0,0,1-5.341,5.341H43.478a5.342,5.342,0,0,1-5.341-5.341V39.5a8.474,8.474,0,0,1,2.518-.853ZM49.888,3.2a1.07,1.07,0,0,1,1.068-1.068H68.049A1.07,1.07,0,0,1,69.117,3.2V4.273H49.888Zm0,5.341V6.41H69.117V8.546Z" transform="translate(-36)"/>
      <circle id="Elipse_12390" data-name="Elipse 12390" cx="1.068" cy="1.068" r="1.068" transform="translate(44.868 24.967)"/>
      <path id="Trazado_1278983" data-name="Trazado 1278983" d="M247.068,310.453a1.068,1.068,0,0,0,1.068-1.068v-1.816a1.068,1.068,0,0,0-2.137,0v1.816A1.068,1.068,0,0,0,247.068,310.453Z" transform="translate(-223.566 -273.757)"/>
      <path id="Trazado_1278984" data-name="Trazado 1278984" d="M175.773,209.356a8.691,8.691,0,0,0-1.7.049,1.068,1.068,0,0,0,.134,2.128c.045,0,.995-.075,1.418-.046a1.068,1.068,0,0,0,.15-2.131Z" transform="translate(-158.487 -186.972)"/>
      <path id="Trazado_1278985" data-name="Trazado 1278985" d="M119.485,230.618a10.221,10.221,0,0,0-1.226,1.161,1.068,1.068,0,0,0,1.622,1.391,8.487,8.487,0,0,1,.956-.9,1.068,1.068,0,0,0-1.352-1.654Z" transform="translate(-109.243 -205.766)"/>
      <path id="Trazado_1278986" data-name="Trazado 1278986" d="M365.544,230.617a1.068,1.068,0,0,0-1.352,1.654,8.52,8.52,0,0,1,.956.9,1.068,1.068,0,0,0,1.622-1.391A10.245,10.245,0,0,0,365.544,230.617Z" transform="translate(-328.781 -205.765)"/>
      <path id="Trazado_1278987" data-name="Trazado 1278987" d="M305.887,209.356a1.068,1.068,0,0,0,.15,2.131c.423-.03,1.373.046,1.418.046a1.068,1.068,0,0,0,.134-2.128A8.691,8.691,0,0,0,305.887,209.356Z" transform="translate(-276.168 -186.972)"/>
    </g>
  </g>
</svg>
