<svg xmlns="http://www.w3.org/2000/svg" width="50" height="50" viewBox="0 0 50 50">
  <g id="Grupo_1204155" data-name="Grupo 1204155" transform="translate(-15 -27)">
    <g id="Grupo_20664" data-name="Grupo 20664" transform="translate(15 27)">
      <path id="Trazado_99075" data-name="Trazado 99075" d="M25,0A25,25,0,1,1,0,25,25,25,0,0,1,25,0Z" fill="#ff9800"/>
      <path id="Trazado_1279066" data-name="Trazado 1279066" d="M1.277,16.665,2.32,7.938h9.973v3.07H5.531L5.145,14.4a4.658,4.658,0,0,1,1.107-.436,5.053,5.053,0,0,1,1.342-.188A5.006,5.006,0,0,1,11.5,15.279,6.066,6.066,0,0,1,12.867,19.5a6.055,6.055,0,0,1-.732,2.971,5.034,5.034,0,0,1-2.057,2.045,6.493,6.493,0,0,1-3.129.715,6.987,6.987,0,0,1-3.012-.662,5.4,5.4,0,0,1-2.2-1.815,4.41,4.41,0,0,1-.785-2.605H4.91a2.24,2.24,0,0,0,.6,1.485,1.9,1.9,0,0,0,1.418.55q1.992,0,1.992-2.947,0-2.725-2.437-2.725a2.432,2.432,0,0,0-2.062.889Z" transform="translate(17.657 8.58)" fill="#12263f"/>
    </g>
  </g>
</svg>
