<svg xmlns="http://www.w3.org/2000/svg" width="50" height="50" viewBox="0 0 50 50">
  <g id="Grupo_1204156" data-name="Grupo 1204156" transform="translate(-15 -27)">
    <g id="Grupo_20664" data-name="Grupo 20664" transform="translate(15 27)">
      <path id="Trazado_99075" data-name="Trazado 99075" d="M25,0A25,25,0,1,1,0,25,25,25,0,0,1,25,0Z" fill="#ff9800"/>
      <path id="Trazado_1279067" data-name="Trazado 1279067" d="M10.582,7.691V10.8h-.176a5.929,5.929,0,0,0-3.639,1.061A4.478,4.478,0,0,0,5.016,14.8a4.618,4.618,0,0,1,3.375-1.312,4.308,4.308,0,0,1,3.527,1.617,6.523,6.523,0,0,1,1.313,4.242,5.973,5.973,0,0,1-.768,2.988,5.477,5.477,0,0,1-2.145,2.127,6.162,6.162,0,0,1-3.053.768,6.369,6.369,0,0,1-3.246-.826,5.68,5.68,0,0,1-2.227-2.361,7.776,7.776,0,0,1-.82-3.539V16.926A9.85,9.85,0,0,1,2.1,12.186a8.2,8.2,0,0,1,3.229-3.3,9.231,9.231,0,0,1,4.652-1.2ZM7.02,16.516a2.26,2.26,0,0,0-1.312.363,2.306,2.306,0,0,0-.785.891v1.184q0,3.234,2.238,3.234a1.816,1.816,0,0,0,1.506-.809,3.3,3.3,0,0,0,.6-2.027,3.235,3.235,0,0,0-.615-2.045A1.968,1.968,0,0,0,7.02,16.516Z" transform="translate(17.657 8.58)" fill="#12263f"/>
    </g>
  </g>
</svg>
