<svg id="Grupo_1202293" data-name="Grupo 1202293" xmlns="http://www.w3.org/2000/svg" width="82.001" height="82" viewBox="0 0 82.001 82">
  <g id="Grupo_1187152" data-name="Grupo 1187152" transform="translate(0)">
    <g id="Grupo_1185946" data-name="Grupo 1185946" transform="translate(0)">
      <g id="Grupo_1184280" data-name="Grupo 1184280" transform="translate(0)">
        <g id="Grupo_1182168" data-name="Grupo 1182168" transform="translate(0)">
          <g id="Grupo_1178877" data-name="Grupo 1178877" transform="translate(0)">
            <g id="Grupo_1111311" data-name="Grupo 1111311" transform="translate(0)">
              <g id="Grupo_1098742" data-name="Grupo 1098742" transform="translate(0)">
                <g id="Rect치ngulo_400898" data-name="Rect치ngulo 400898" transform="translate(0)" fill="#fff" stroke="#846e4e" stroke-width="1" opacity="0.859">
                  <rect width="82.001" height="82.001" rx="41" stroke="none"/>
                  <rect x="0.5" y="0.5" width="81.001" height="81.001" rx="40.5" fill="none"/>
                </g>
                <g id="Rect치ngulo_400907" data-name="Rect치ngulo 400907" transform="translate(0)" fill="none" stroke="#846e4e" stroke-width="1">
                  <rect width="82.001" height="82.001" rx="41" stroke="none"/>
                  <rect x="0.5" y="0.5" width="81.001" height="81.001" rx="40.5" fill="none"/>
                </g>
              </g>
            </g>
          </g>
        </g>
      </g>
    </g>
  </g>
  <g id="_014---Feed-Animal" data-name="014---Feed-Animal" transform="translate(13.287 13.295)">
    <g id="Icons" transform="translate(0.924 1.548)">
      <path id="Shape" d="M53.645,3.747H33.322A4.674,4.674,0,0,0,30.643,1.9L25.756.7a.924.924,0,0,0-.924,1.469l2.624,3.427a3.7,3.7,0,0,0-1.34,1.376L14.846,27.95A11.218,11.218,0,0,0,13,33.179a6.171,6.171,0,0,0,5.349,6.6,6,6,0,0,0,6.171-3.6c.092-.092-.176.111,13.109-8.37a11.418,11.418,0,0,0,2.882-4.619c7.2,0,11.418,1.256,14.06,8.314V4.671a.924.924,0,0,0-.924-.924Z" transform="translate(-0.989 -0.678)" fill="sienna"/>
      <path id="Shape-2" data-name="Shape" d="M57.7,4.924v26.79A14.679,14.679,0,0,0,54.924,26.9V4.924A.924.924,0,0,0,54,4h2.771A.924.924,0,0,1,57.7,4.924Z" transform="translate(-4.115 -0.931)" fill="#783e22"/>
      <path id="Shape-3" data-name="Shape" d="M28.545,49.9l-9.764,5.774a3.52,3.52,0,0,1-1.848.49H4.674c.157-.268-.674-.591-.674-.924V46c2.023,0,3.547-.2,5.072.924a4.758,4.758,0,0,0,2.882.924h3.132a1.848,1.848,0,1,1,0,3.7c1.783,0-.268.564,12.259-4.139a1.469,1.469,0,0,1,1.6.443,1.349,1.349,0,0,1-.4,2.051Z" transform="translate(-0.305 -4.131)" fill="#ffe0b2"/>
      <path id="Shape-4" data-name="Shape" d="M4.619,45.845c0,9.857.1,9.552-.249,10.162a1.848,1.848,0,0,1-1.6.924H1.848A1.848,1.848,0,0,1,0,55.083V45.845a1.848,1.848,0,0,1,1.386-1.783A4.4,4.4,0,0,1,2.771,44,1.848,1.848,0,0,1,4.619,45.845Z" transform="translate(0 -3.977)" fill="#6a1b9a"/>
      <path id="Shape-5" data-name="Shape" d="M2.771,45.853c0,9.857.1,9.552-.249,10.162a1.848,1.848,0,0,1-1.136.859A1.848,1.848,0,0,1,0,55.091V45.853A1.848,1.848,0,0,1,1.386,44.07,1.848,1.848,0,0,1,2.771,45.853Z" transform="translate(0 -3.985)" fill="#9d27b0"/>
      <path id="Shape-6" data-name="Shape" d="M24.527,38.376a6,6,0,0,1-6.18,3.649A6.1,6.1,0,0,1,13,36.343,10.1,10.1,0,0,1,14.845,30.2,20.028,20.028,0,0,1,24.527,38.376Z" transform="translate(-0.989 -2.928)" fill="#ffe0b2"/>
    </g>
    <g id="Layer_2" transform="translate(0 -0.02)">
      <path id="Shape-7" data-name="Shape" d="M54.571,4.694H34.7A5.672,5.672,0,0,0,31.809,2.9L24.307,1a.924.924,0,0,0-.924,1.46l3.575,4.619L14.026,31.04l-.111.24c-2.688,6.152.933,11.289,6.014,11.289a6.891,6.891,0,0,0,6.217-3.917c13.487-8.61,12.933-8.222,12.989-8.314a9.155,9.155,0,0,0,2.984-4.4c6.467,0,10.162,1.33,12.508,7.686a.924.924,0,0,0,1.792-.3V6.541A1.848,1.848,0,0,0,54.571,4.694Zm0,24.711c-2.993-4.527-7.261-5.219-12.065-5.284a9.238,9.238,0,0,0-9.182-10.189.924.924,0,0,0,0,1.848,7.39,7.39,0,0,1,4.684,13.109c-14.245,9.1-13.081,8.314-13.256,8.527l-.157.231a5.081,5.081,0,0,1-9.746-2,8.139,8.139,0,0,1,.831-3.751l12.5-23.206L29.822,10.8a.924.924,0,1,0,1.46-1.127L26.46,3.465l4.905,1.229a3.834,3.834,0,0,1,2.771,2.947.94.94,0,1,0,1.848-.351,4.951,4.951,0,0,0-.2-.748h2.162a2.771,2.771,0,0,1,2.771,2.771.924.924,0,1,0,1.848,0,4.545,4.545,0,0,0-.924-2.771h.924a2.771,2.771,0,0,1,2.771,2.771.924.924,0,1,0,1.848,0,4.545,4.545,0,0,0-.924-2.771h.924a2.771,2.771,0,0,1,2.771,2.771.924.924,0,1,0,1.848,0,4.545,4.545,0,0,0-.924-2.771h3.7Z" transform="translate(-0.991 -0.98)"/>
      <path id="Shape-8" data-name="Shape" d="M2.771,59.781c1.072,0,2.042.111,2.965-.924H17.552a4.444,4.444,0,0,0,2.273-.619c10.855-6.411,9.737-5.774,9.811-5.774a2.273,2.273,0,0,0,.721-3.27,2.383,2.383,0,0,0-2.716-.924l-9.164,3.5A2.771,2.771,0,0,0,15.7,48.7H12.573a3.954,3.954,0,0,1-2.328-.748,5.829,5.829,0,0,0-3.427-1.1H6.3A2.771,2.771,0,0,0,3.7,45H2.771A2.771,2.771,0,0,0,0,47.771v9.238a2.771,2.771,0,0,0,2.771,2.771ZM9.155,49.434a5.727,5.727,0,0,0,3.418,1.109H15.7a.924.924,0,0,1,0,1.848c-4.333,0-5.053-.222-6.956.979a.925.925,0,1,0,.979,1.57c1.413-.924,1.506-.7,6.873-.7.739,0,0,.194,11.64-4.185a.472.472,0,0,1,.453.822l-9.811,5.774a2.568,2.568,0,0,1-1.33.36H6.467V48.7h.351a4.037,4.037,0,0,1,2.337.739ZM1.848,47.771a.924.924,0,0,1,.924-.924H3.7a.924.924,0,0,1,.924.924v9.238a.924.924,0,0,1-.924.924H2.771a.924.924,0,0,1-.924-.924Z" transform="translate(0 -4.334)"/>
    </g>
  </g>
</svg>
