<svg id="Grupo_1204104" data-name="Grupo 1204104" xmlns="http://www.w3.org/2000/svg" xmlns:xlink="http://www.w3.org/1999/xlink" width="82.001" height="82.001" viewBox="0 0 82.001 82.001">
  <defs>
    <clipPath id="clip-path">
      <path id="path5421" d="M0-682.665H60.5v60.5H0Z" transform="translate(0 682.665)"/>
    </clipPath>
  </defs>
  <g id="Grupo_1187152" data-name="Grupo 1187152" transform="translate(0)">
    <g id="Grupo_1185946" data-name="Grupo 1185946" transform="translate(0)">
      <g id="Grupo_1184280" data-name="Grupo 1184280" transform="translate(0)">
        <g id="Grupo_1182168" data-name="Grupo 1182168" transform="translate(0)">
          <g id="Grupo_1178877" data-name="Grupo 1178877" transform="translate(0)">
            <g id="Grupo_1111311" data-name="Grupo 1111311" transform="translate(0)">
              <g id="Grupo_1098742" data-name="Grupo 1098742" transform="translate(0)">
                <g id="Rect치ngulo_400898" data-name="Rect치ngulo 400898" transform="translate(0)" fill="#fff" stroke="#518a7a" stroke-width="1" opacity="0.859">
                  <rect width="82.001" height="82.001" rx="41" stroke="none"/>
                  <rect x="0.5" y="0.5" width="81.001" height="81.001" rx="40.5" fill="none"/>
                </g>
                <g id="Rect치ngulo_400907" data-name="Rect치ngulo 400907" transform="translate(0)" fill="none" stroke="#518a7a" stroke-width="1">
                  <rect width="82.001" height="82.001" rx="41" stroke="none"/>
                  <rect x="0.5" y="0.5" width="81.001" height="81.001" rx="40.5" fill="none"/>
                </g>
              </g>
            </g>
          </g>
        </g>
      </g>
    </g>
  </g>
  <g id="g5415" transform="translate(10.75 687.665)">
    <g id="g5417" transform="translate(0 -682.665)">
      <g id="g5419" clip-path="url(#clip-path)">
        <g id="g5425" transform="translate(31.321 21.111)">
          <path id="path5427" d="M-88.709-192.219a11.327,11.327,0,0,1,3.907-.691,10.676,10.676,0,0,1,1.857.166q.128-.168.245-.346l5.89-8.949-13.607-8.872-5.89,8.949a6.234,6.234,0,0,0-.972,4.27,13.867,13.867,0,0,1,8.57,5.473" transform="translate(97.336 210.911)" fill="#ccf5fc"/>
        </g>
        <g id="g5429" transform="translate(31.321 21.111)">
          <path id="path5431" d="M-150.506-183.26l5.89-8.949-13.607-8.872-5.89,8.949a6.234,6.234,0,0,0-1,4.013" transform="translate(165.141 201.081)" fill="none" stroke="#000" stroke-linecap="round" stroke-linejoin="round" stroke-miterlimit="10" stroke-width="2"/>
        </g>
        <g id="g5433" transform="translate(1.182 49.126)">
          <path id="path5435" d="M-353.863-72.052h23.727v-3.7a3.307,3.307,0,0,0-3.307-3.307h-51.524a3.307,3.307,0,0,0-3.307,3.307v3.7h23.727" transform="translate(388.274 79.058)" fill="#d1a184" stroke="#000" stroke-linecap="round" stroke-linejoin="round" stroke-miterlimit="10" stroke-width="2"/>
        </g>
        <g id="g5437" transform="translate(30.229 56.133)">
          <path id="path5439" d="M0,0Z" transform="translate(0 0)" fill="#a0e5a5"/>
        </g>
        <g id="g5441" transform="translate(30.229 56.133)">
          <path id="path5443" d="M0,0H0" transform="translate(0 0)" fill="none" stroke="#000" stroke-linecap="round" stroke-linejoin="round" stroke-miterlimit="10" stroke-width="2"/>
        </g>
        <g id="g5445" transform="translate(5.664 34.076)">
          <path id="path5447" d="M-505.67-154.769c0-5.862-5.7-10.014-10.983-10.014a11.326,11.326,0,0,0-3.907.691,13.842,13.842,0,0,0-11.223-5.727,13.86,13.86,0,0,0-12.409,7.678,10.163,10.163,0,0,0-1.453-.106c-4.1,0-9.2,3.743-9.2,7.477Z" transform="translate(554.843 169.82)" fill="#ddb9a3"/>
        </g>
        <g id="g5449" transform="translate(5.664 34.076)">
          <path id="path5451" d="M-505.67-154.769c0-5.862-5.7-10.014-10.983-10.014a11.326,11.326,0,0,0-3.907.691,13.842,13.842,0,0,0-11.223-5.727,13.86,13.86,0,0,0-12.409,7.678,10.163,10.163,0,0,0-1.453-.106c-4.1,0-9.2,3.743-9.2,7.477Z" transform="translate(554.843 169.82)" fill="none" stroke="#000" stroke-linecap="round" stroke-linejoin="round" stroke-miterlimit="10" stroke-width="2"/>
        </g>
        <g id="g5453" transform="translate(42.586 4.369)">
          <path id="path5455" d="M0-256.138l16.734-24.908" transform="translate(0 281.046)" fill="none" stroke="#000" stroke-linecap="round" stroke-linejoin="round" stroke-miterlimit="10" stroke-width="2"/>
        </g>
      </g>
    </g>
  </g>
</svg>
