<svg xmlns="http://www.w3.org/2000/svg" width="129.063" height="78.857" viewBox="0 0 129.063 78.857">
  <g id="Grupo_1204111" data-name="Grupo 1204111" transform="translate(-788.103 -1982.399)">
    <g id="Grupo_1201007" data-name="Grupo 1201007">
      <g id="Rectángulo_410589" data-name="Rectángulo 410589" transform="translate(788.103 2007.607)" fill="#d3af82" stroke="#93795a" stroke-width="1">
        <rect width="129.063" height="43.021" rx="8" stroke="none"/>
        <rect x="0.5" y="0.5" width="128.063" height="42.021" rx="7.5" fill="none"/>
      </g>
    </g>
    <g id="Layer_6" data-name="Layer 6" transform="translate(816.172 1981.404)">
      <path id="Trazado_1247134" data-name="Trazado 1247134" d="M53.846,16.388l.52-1.04a15.735,15.735,0,0,0,1.661-7.035h0a15.722,15.722,0,0,0-.808-4.977L54.773,2h0a10.423,10.423,0,0,0-4.011,5.088L46,13.28l6.267,6.267" transform="translate(11.596 0.255)" fill="#7c6348"/>
      <path id="Trazado_1247135" data-name="Trazado 1247135" d="M52.656,10.419l-1.5-.9A10.681,10.681,0,0,0,45.669,8h0a10.687,10.687,0,0,0-3.964.763l-2.228.891a11.906,11.906,0,0,1-4.424.852h0a11.885,11.885,0,0,1-2.891-.357l-3.588-.9,3.76,5.013-1.564.521a14.256,14.256,0,0,1-4.512.732h0a14.278,14.278,0,0,1-7.334-2.033L16.04,11.76l.877,2.617a9.414,9.414,0,0,0,6.643,6.156h0l-.316.395A15.648,15.648,0,0,1,11.026,26.8h0l5.013,3.76H11.545A4.28,4.28,0,0,1,8.52,29.307h0a4.28,4.28,0,0,0-3.025-1.253H2.253l4.528,5.66A2.22,2.22,0,0,1,7.267,35.1h0a2.216,2.216,0,0,1-1.678,2.149l-3.335.833L4.84,39.115a8.54,8.54,0,0,1,4.933,5.231h0a11.712,11.712,0,0,1-5.982,3.2L1,48.106V61.892L53.639,28.053Z" transform="translate(0.198 1.774)" fill="#4c4c4c"/>
      <path id="Trazado_1247136" data-name="Trazado 1247136" d="M53.639,27.977l-.983-17.634-1.5-.9A10.653,10.653,0,0,0,48.45,8.3a24.076,24.076,0,0,0-6.893,2.341l-1.253.653a60,60,0,0,0-30.138,37.42A28.05,28.05,0,0,0,1,55.4v6.417Z" transform="translate(0.198 1.85)" fill="#383838"/>
      <path id="Trazado_1247137" data-name="Trazado 1247137" d="M77.452,47.336a4.482,4.482,0,0,1-2.481,4.011l-2.795,1.4a10.752,10.752,0,0,1-4.75,1.115,5.007,5.007,0,0,1-5.013-5.013l-7.52-6.267a11.2,11.2,0,0,1-7.319-5.878l-1.454-2.9.589,2.068a49.491,49.491,0,0,1,1.918,13.674,49.689,49.689,0,0,1-2.555,15.723l-.591,1.8-.013.013.113.15a26.381,26.381,0,0,1,4.3,9.187H1V58.879l.8-.99A25.485,25.485,0,0,1,12.28,50.106,57.5,57.5,0,0,1,41.457,13.083l1.253-.652A21.5,21.5,0,0,1,52.624,10l9.462,1.579a11.329,11.329,0,0,1,4.562,5.113,23.656,23.656,0,0,1,2.03,9.6l2.005,3.61a33.767,33.767,0,0,1,4.1,13.16v.013A4.741,4.741,0,0,1,77.452,47.336Z" transform="translate(0.198 2.281)" fill="#967a56"/>
      <path id="Trazado_1247138" data-name="Trazado 1247138" d="M74.015,43.075v-.013a33.767,33.767,0,0,0-4.1-13.16l-2.005-3.61a23.656,23.656,0,0,0-2.03-9.6,11.329,11.329,0,0,0-4.562-5.113L51.857,10a21.458,21.458,0,0,0-3.918.365A74.461,74.461,0,0,0,20.286,56.372h0A60.849,60.849,0,0,0,4.028,76.425H49.112a26.381,26.381,0,0,0-4.3-9.187l-.113-.15.013-.013.589-1.792a49.7,49.7,0,0,0,2.557-15.729,49.491,49.491,0,0,0-1.918-13.674l-.589-2.068,1.454,2.9a11.2,11.2,0,0,0,7.319,5.878l7.52,6.267a5.007,5.007,0,0,0,5.013,5.013,10.752,10.752,0,0,0,4.75-1.115l2.795-1.4a4.482,4.482,0,0,0,2.482-4.011A4.741,4.741,0,0,0,74.015,43.075Z" transform="translate(0.965 2.281)" fill="#b19367"/>
      <path id="Trazado_1247139" data-name="Trazado 1247139" d="M41,19.546l1-5.515A16.814,16.814,0,0,1,51.026,2h0l.89,4.45a18.683,18.683,0,0,1,.363,3.668h0a18.7,18.7,0,0,1-1.974,8.364l-.532,1.064" transform="translate(10.33 0.255)" fill="#b19367"/>
      <path id="Trazado_1247141" data-name="Trazado 1247141" d="M50.65,6.45,49.76,2,47.12,7.278a10.623,10.623,0,0,0,0,9.5l1.386,2.771.533-1.064A18.7,18.7,0,0,0,50.65,6.45Z" transform="translate(11.596 0.255)" fill="#967a56"/>
      <path id="Trazado_1247143" data-name="Trazado 1247143" d="M26.386,64.772A18.587,18.587,0,0,1,15.5,49.89l-2.492.276A21.109,21.109,0,0,0,23.881,66.321h7.341l-4-1.178Z" transform="translate(3.239 12.385)" fill="#967a56"/>
      <path id="Trazado_1247146" data-name="Trazado 1247146" d="M25.367,67.062l.909.4,1.018-2.291-.907-.4A18.587,18.587,0,0,1,15.5,49.89l-2.492.276a21.1,21.1,0,0,0,12.361,16.9Z" transform="translate(3.239 12.385)"/>
      <path id="Trazado_1247148" data-name="Trazado 1247148" d="M76.145,44.577a34.912,34.912,0,0,0-4.167-13l-1.849-3.336a24.69,24.69,0,0,0-2.142-9.776,12.454,12.454,0,0,0-1.09-1.931l.188-.376A16.984,16.984,0,0,0,68.008,3.2l-.446-1.339a1.253,1.253,0,0,0-1.88-.647,11.636,11.636,0,0,0-2.746,2.547L62.585,2A1.253,1.253,0,0,0,60.8,1.127a18.15,18.15,0,0,0-8.578,9.217L52,10.218a12.062,12.062,0,0,0-10.575-.843l-2.228.891a10.673,10.673,0,0,1-6.542.444l-3.584-.9a1.253,1.253,0,0,0-1.306,1.968L30.484,15.4a13.125,13.125,0,0,1-10.722-1.214L16.879,12.46a1.253,1.253,0,0,0-1.834,1.47l.877,2.617a10.607,10.607,0,0,0,5.7,6.338,14.309,14.309,0,0,1-10.4,4.435,1.253,1.253,0,0,0-.752,2.256l2.005,1.5h-.734A3.008,3.008,0,0,1,9.6,30.193a5.5,5.5,0,0,0-3.912-1.619H2.451a1.253,1.253,0,0,0-.979,2.037L6,36.271A.961.961,0,0,1,5.483,37.8l-3.335.835a1.253,1.253,0,0,0-.162,2.381l2.586,1.035a7.269,7.269,0,0,1,3.92,3.727,10.409,10.409,0,0,1-4.75,2.311l-2.795.559.5,2.456,2.791-.558a12.909,12.909,0,0,0,6.622-3.544,1.253,1.253,0,0,0,.3-1.282,9.776,9.776,0,0,0-4.754-5.583A3.469,3.469,0,0,0,7.963,34.7L5.058,31.081h.634a3.008,3.008,0,0,1,2.139.887,5.5,5.5,0,0,0,3.912,1.619h4.494a1.253,1.253,0,0,0,.752-2.256l-2.44-1.83a16.8,16.8,0,0,0,9.871-6.016l.316-.394a1.253,1.253,0,0,0-.676-2,8.115,8.115,0,0,1-5.528-4.719,15.666,15.666,0,0,0,12.83,1.379l1.564-.521a1.253,1.253,0,0,0,.607-1.943L31.891,13.1l.167.043a13.219,13.219,0,0,0,8.08-.549l2.228-.891a9.518,9.518,0,0,1,6.2-.263A22.789,22.789,0,0,0,42.329,13.6l-1.253.657A58.771,58.771,0,0,0,11.418,51.469a26.923,26.923,0,0,0-10.4,7.912l-.8,1,1.958,1.567.8-1a24.387,24.387,0,0,1,9.969-7.395,1.253,1.253,0,0,0,.752-.86A56.253,56.253,0,0,1,42.231,16.481l1.253-.657a20.277,20.277,0,0,1,7.722-2.216c-.033.153-.083.3-.112.454l-1,5.515,2.464.449,1-5.515a15.637,15.637,0,0,1,4.425-8.327l-.387.788a11.871,11.871,0,0,0,0,10.618l1.379,2.771a1.253,1.253,0,0,0,2.243,0L61.75,19.3a19.857,19.857,0,0,0,1.278-3.358,9.962,9.962,0,0,1,2.66,3.549,22.226,22.226,0,0,1,1.742,6.325l-.2,2.958q.335.279.648.587l1.909,3.434a32.419,32.419,0,0,1,3.726,10.88c-.2-.02-.4-.059-.609-.059H71.383V46.12H72.9a3.5,3.5,0,0,1,3.5,3.5A3.206,3.206,0,0,1,74.612,52.5l-2.39,1.2-2.344.912a9.34,9.34,0,0,1-2.256.285,3.76,3.76,0,0,1-3.76-3.76,1.253,1.253,0,0,0-.45-.963L55.893,43.9a1.246,1.246,0,0,0-.5-.251,9.969,9.969,0,0,1-6.506-5.22l-1.441-2.9a1.253,1.253,0,0,0-2.327.9l.593,2.075a48.454,48.454,0,0,1,1.86,13.321,48.367,48.367,0,0,1-2.32,14.8,27.384,27.384,0,0,1-5.2-16.094,43.49,43.49,0,0,1,.842-8.5l.386-1.931-2.456-.5-.387,1.936a45.881,45.881,0,0,0-.891,9,29.881,29.881,0,0,0,5.751,17.685l1.476,2.029a25.23,25.23,0,0,1,4.09,8.758l2.431-.607a27.7,27.7,0,0,0-4.236-9.233l.4-1.208a50.884,50.884,0,0,0,2.618-16.128,50.933,50.933,0,0,0-.752-8.7A12.5,12.5,0,0,0,54.5,46.015l6.884,5.736A6.277,6.277,0,0,0,67.623,57.4a11.933,11.933,0,0,0,5.309-1.253l2.8-1.4A5.7,5.7,0,0,0,78.9,49.618a5.964,5.964,0,0,0-1.755-4.25A6.064,6.064,0,0,0,76.145,44.577ZM60.074,16.938l-.236-.469a9.365,9.365,0,0,1,0-8.377l1-2.005.173.87a17.377,17.377,0,0,1,.342,3.417,17.566,17.566,0,0,1-1.282,6.565Zm3.549-3.668a19.859,19.859,0,0,0,.239-2.9,19.954,19.954,0,0,0-.226-2.827,9.115,9.115,0,0,1,2.106-3.183,14.32,14.32,0,0,1-.652,10.09,12.442,12.442,0,0,0-1.468-1.183Z"/>
    </g>
  </g>
</svg>
