<svg xmlns="http://www.w3.org/2000/svg" xmlns:xlink="http://www.w3.org/1999/xlink" width="92.201" height="117.092" viewBox="0 0 92.201 117.092">
  <defs>
    <filter id="Rectángulo_410591" x="0" y="0" width="73" height="117.092" filterUnits="userSpaceOnUse">
      <feOffset dy="3" input="SourceAlpha"/>
      <feGaussianBlur stdDeviation="3" result="blur"/>
      <feFlood flood-opacity="0.161"/>
      <feComposite operator="in" in2="blur"/>
      <feComposite in="SourceGraphic"/>
    </filter>
  </defs>
  <g id="Grupo_1204226" data-name="Grupo 1204226" transform="translate(-242.85 -5760.451)">
    <g transform="matrix(1, 0, 0, 1, 242.85, 5760.45)" filter="url(#Rectángulo_410591)">
      <path id="Rectángulo_410591-2" data-name="Rectángulo 410591" d="M10,0H45A10,10,0,0,1,55,10V99.092a0,0,0,0,1,0,0H0a0,0,0,0,1,0,0V10A10,10,0,0,1,10,0Z" transform="translate(9 6)" fill="#ff9800"/>
    </g>
    <g id="protection_6915488" transform="translate(240.483 5776.627)">
      <path id="Trazado_1278914" data-name="Trazado 1278914" d="M124.187,7.5l-23.5,7.046v5.244a37.378,37.378,0,0,0,23.495,34.7h0a37.378,37.378,0,0,0,23.5-34.7V14.548Z" transform="translate(-65.858 -0.002)" fill="#c2da62"/>
      <path id="Trazado_1278915" data-name="Trazado 1278915" d="M105.229,19.792V16.237a2.269,2.269,0,0,1,1.617-2.174l19.61-5.88-2.269-.68-23.5,7.046v5.244a37.378,37.378,0,0,0,23.495,34.7h0q1.156-.462,2.268-1A37.379,37.379,0,0,1,105.229,19.792Z" transform="translate(-65.858 -0.002)" fill="#b2cc4f"/>
      <g id="Grupo_1204325" data-name="Grupo 1204325" transform="translate(41.691 13.828)">
        <g id="Grupo_1204324" data-name="Grupo 1204324" transform="translate(0 0)">
          <ellipse id="Elipse_12376" data-name="Elipse 12376" cx="3.139" cy="4.718" rx="3.139" ry="4.718" transform="matrix(0.966, -0.259, 0.259, 0.966, 6.927, 1.625)" fill="#fff8eb"/>
          <ellipse id="Elipse_12377" data-name="Elipse 12377" cx="4.718" cy="3.139" rx="4.718" ry="3.139" transform="matrix(0.259, -0.966, 0.966, 0.259, 17.839, 9.116)" fill="#fff8eb"/>
          <ellipse id="Elipse_12378" data-name="Elipse 12378" cx="2.345" cy="3.525" rx="2.345" ry="3.525" transform="matrix(0.866, -0.5, 0.5, 0.866, 0, 9.598)" fill="#fff8eb"/>
          <ellipse id="Elipse_12379" data-name="Elipse 12379" cx="3.525" cy="2.345" rx="3.525" ry="2.345" transform="matrix(0.5, -0.866, 0.866, 0.5, 25.688, 13.36)" fill="#fff8eb"/>
        </g>
        <path id="Trazado_1278916" data-name="Trazado 1278916" d="M183.5,150.916a6.436,6.436,0,0,0,4.016-1.526,5.88,5.88,0,0,1,7.05,0,6.433,6.433,0,0,0,4.015,1.525c4.157,0,4.67-4.759,3.471-7.238a13.551,13.551,0,0,0-4.431-4.861h0a11.849,11.849,0,0,0-13.159,0h0a13.55,13.55,0,0,0-4.432,4.863C178.806,146.052,179.373,150.916,183.5,150.916Z" transform="translate(-174.401 -123.586)" fill="#fff8eb"/>
      </g>
      <g id="Grupo_1204326" data-name="Grupo 1204326" transform="translate(42.796 14.568)">
        <path id="Trazado_1278917" data-name="Trazado 1278917" d="M201.59,59.66c-.542-2.022-.125-3.971.928-4.892a2.566,2.566,0,0,0-2.143-.478c-1.675.449-2.486,2.853-1.811,5.37s2.579,4.194,4.254,3.745a2.2,2.2,0,0,0,.883-.478A5.821,5.821,0,0,1,201.59,59.66Z" transform="translate(-191.52 -54.218)" fill="#fef0cb"/>
        <path id="Trazado_1278918" data-name="Trazado 1278918" d="M273.713,58.035a5.823,5.823,0,0,1,2.111-3.267,2.2,2.2,0,0,0-.883-.478c-1.675-.449-3.579,1.228-4.254,3.745s.137,4.921,1.811,5.37a2.566,2.566,0,0,0,2.143-.478C273.588,62.007,273.172,60.058,273.713,58.035Z" transform="translate(-252.731 -54.218)" fill="#fef0cb"/>
        <path id="Trazado_1278919" data-name="Trazado 1278919" d="M157.015,108.027a3.612,3.612,0,0,1-.217-3.793,2.33,2.33,0,0,0-2.54-.432c-1.122.648-1.242,2.539-.269,4.225s2.671,2.527,3.793,1.88a1.624,1.624,0,0,0,.486-.432A4.874,4.874,0,0,1,157.015,108.027Z" transform="translate(-153.331 -96.116)" fill="#fef0cb"/>
        <path id="Trazado_1278920" data-name="Trazado 1278920" d="M326.81,105.682a4.883,4.883,0,0,1,1.253-1.448,1.626,1.626,0,0,0-.486-.432c-1.122-.647-2.82.194-3.793,1.88s-.853,3.577.269,4.225a2.33,2.33,0,0,0,2.54-.432A3.612,3.612,0,0,1,326.81,105.682Z" transform="translate(-297.438 -96.115)" fill="#fef0cb"/>
        <path id="Trazado_1278921" data-name="Trazado 1278921" d="M183.053,143.68a13.551,13.551,0,0,1,4.432-4.863h0a12.065,12.065,0,0,1,5.066-1.9,11.89,11.89,0,0,0-8.092,1.9h0a13.551,13.551,0,0,0-4.432,4.863c-1.221,2.373-.654,7.237,3.471,7.237a6.924,6.924,0,0,0,1.576-.237C182.28,149.678,181.993,145.74,183.053,143.68Z" transform="translate(-175.506 -124.326)" fill="#fef0cb"/>
      </g>
      <g id="Grupo_1204328" data-name="Grupo 1204328" transform="translate(41.691 13.828)">
        <g id="Grupo_1204327" data-name="Grupo 1204327" transform="translate(0 0)">
          <ellipse id="Elipse_12380" data-name="Elipse 12380" cx="3.139" cy="4.718" rx="3.139" ry="4.718" transform="matrix(0.966, -0.259, 0.259, 0.966, 6.927, 1.625)" fill="none" stroke="#000" stroke-linecap="round" stroke-linejoin="round" stroke-miterlimit="10" stroke-width="2"/>
          <ellipse id="Elipse_12381" data-name="Elipse 12381" cx="4.718" cy="3.139" rx="4.718" ry="3.139" transform="matrix(0.259, -0.966, 0.966, 0.259, 17.839, 9.116)" fill="none" stroke="#000" stroke-linecap="round" stroke-linejoin="round" stroke-miterlimit="10" stroke-width="2"/>
          <ellipse id="Elipse_12382" data-name="Elipse 12382" cx="2.345" cy="3.525" rx="2.345" ry="3.525" transform="matrix(0.866, -0.5, 0.5, 0.866, 0, 9.598)" fill="none" stroke="#000" stroke-linecap="round" stroke-linejoin="round" stroke-miterlimit="10" stroke-width="2"/>
          <ellipse id="Elipse_12383" data-name="Elipse 12383" cx="3.525" cy="2.345" rx="3.525" ry="2.345" transform="matrix(0.5, -0.866, 0.866, 0.5, 25.688, 13.36)" fill="none" stroke="#000" stroke-linecap="round" stroke-linejoin="round" stroke-miterlimit="10" stroke-width="2"/>
        </g>
        <path id="Trazado_1278922" data-name="Trazado 1278922" d="M183.5,150.916a6.436,6.436,0,0,0,4.016-1.526,5.88,5.88,0,0,1,7.05,0,6.433,6.433,0,0,0,4.015,1.525c4.157,0,4.67-4.759,3.471-7.238a13.551,13.551,0,0,0-4.431-4.861h0a11.849,11.849,0,0,0-13.159,0h0a13.55,13.55,0,0,0-4.432,4.863C178.806,146.052,179.373,150.916,183.5,150.916Z" transform="translate(-174.401 -123.586)" fill="none" stroke="#000" stroke-linecap="round" stroke-linejoin="round" stroke-miterlimit="10" stroke-width="2"/>
      </g>
      <path id="Trazado_1278923" data-name="Trazado 1278923" d="M142.021,39.569a37.325,37.325,0,0,0,5.664-19.779V14.547L124.189,7.5l-23.5,7.047v5.244a37.375,37.375,0,0,0,23.5,34.7h0A37.307,37.307,0,0,0,139.13,43.587" transform="translate(-65.86 0)" fill="none" stroke="#000" stroke-linecap="round" stroke-linejoin="round" stroke-miterlimit="10" stroke-width="2"/>
      <path id="Trazado_1278924" data-name="Trazado 1278924" d="M131.63,335.56l-19.45,17.034a7.646,7.646,0,0,1-5.038,1.894H88.6a15.383,15.383,0,0,1-4.433-.652l-8.5-2.555H69.691V333.693H75.67a11.963,11.963,0,0,1,16.312-1.738,8.713,8.713,0,0,0,5.278,1.738h11.555a4.471,4.471,0,0,1,4.471,4.471,4.406,4.406,0,0,1-.185,1.271l.026-.021,12.7-10.626a4.453,4.453,0,0,1,6.309.593A4.56,4.56,0,0,1,131.63,335.56Z" transform="translate(-39.549 -271.798)" fill="#ffcebf"/>
      <path id="Trazado_1278925" data-name="Trazado 1278925" d="M350.406,328.368a4.355,4.355,0,0,0-.593.419l-12.729,10.648a14.678,14.678,0,0,1-8.832,3.2,4.617,4.617,0,0,0,4.294-3.2l.026-.027,12.7-10.626A4.459,4.459,0,0,1,350.406,328.368Z" transform="translate(-258.992 -271.798)" fill="#ffb09e"/>
      <rect id="Rectángulo_413102" data-name="Rectángulo 413102" width="7.049" height="23.497" transform="translate(23.092 59.193)" fill="#83c1d8"/>
      <rect id="Rectángulo_413103" data-name="Rectángulo 413103" width="3.782" height="23.497" transform="translate(23.092 59.193)" fill="#43a2c8"/>
      <rect id="Rectángulo_413104" data-name="Rectángulo 413104" width="4.539" height="17.587" transform="translate(30.142 61.895)" fill="#ffb09e"/>
      <path id="Trazado_1278926" data-name="Trazado 1278926" d="M231.724,408.235h14.6a4.615,4.615,0,0,0,4.294-3.2" transform="translate(-177.068 -337.394)" fill="none" stroke="#000" stroke-linecap="round" stroke-linejoin="round" stroke-miterlimit="10" stroke-width="2"/>
      <path id="Trazado_1278927" data-name="Trazado 1278927" d="M96.679,354.49h10.465a7.646,7.646,0,0,0,5.038-1.894l19.45-17.034a4.56,4.56,0,0,0,.51-6.18,4.457,4.457,0,0,0-6.309-.593L113.1,339.437a4.405,4.405,0,0,0,.185-1.271,4.471,4.471,0,0,0-4.471-4.471H97.261a8.713,8.713,0,0,1-5.278-1.738A11.963,11.963,0,0,0,75.671,333.7H69.692v17.587h5.979l8.5,2.555a15.383,15.383,0,0,0,4.433.652h3.13" transform="translate(-39.55 -271.8)" fill="none" stroke="#000" stroke-linecap="round" stroke-linejoin="round" stroke-miterlimit="10" stroke-width="2"/>
      <path id="Trazado_1278928" data-name="Trazado 1278928" d="M23.092,363.31v9.377h7.05v-23.5h-7.05v9.174" transform="translate(0 -289.996)" fill="none" stroke="#000" stroke-linecap="round" stroke-linejoin="round" stroke-miterlimit="10" stroke-width="2"/>
    </g>
  </g>
</svg>
